<svg xmlns="http://www.w3.org/2000/svg" viewBox="0 0 353.82 71.42"><defs><style>.cls-1{fill:#fff}</style></defs><g id="Capa_2" data-name="Capa 2"><g id="Capa_1-2" data-name="Capa 1"><path class="cls-1" d="M126.74 13.78h7v45h-7zm14.38 3.32a4.47 4.47 0 018.94 0 4.47 4.47 0 01-8.94 0zm.94 9.82h7V58.8h-7zm87.69 18.63h-26.38a9.51 9.51 0 009.57 7.69c4.06 0 7.37-1.88 8.75-4.56h7.63c-2.32 6.44-8.57 10.88-16.45 10.88-9.69 0-17-7.2-17-16.7s7.31-16.7 17-16.7 17.07 7.2 17.07 16.76a18.51 18.51 0 01-.19 2.63zm-26.32-5.75h18.95a9.79 9.79 0 00-18.95 0zm32.66-26.02h7v45h-7zm14.39 3.32a4.48 4.48 0 019 0 4.48 4.48 0 01-9 0zm.94 9.82h7V58.8h-7zm-76.78-.76a16.63 16.63 0 00-9.09 2.71V13.78H158v29.08a16.7 16.7 0 1016.69-16.7zm0 26.26a9.9 9.9 0 01-9.54-9.56 9.54 9.54 0 0119.08 0 9.89 9.89 0 01-9.54 9.56zm121.06-25.5h-7v18.14a7.72 7.72 0 11-15.43 0V26.92h-7V45.4a14.7 14.7 0 0029.39-.34zm58.11 13.45a14.69 14.69 0 00-25.9-9.18A14.69 14.69 0 00302 40.7v18.15h7V40.7a7.71 7.71 0 0115.42 0v18.15h7V40.54a7.71 7.71 0 0115.41.16v18.15h7V40.36zM105.59 11.25c-12.14-5.86-26.48-7.65-51.78 1.9 12.73 13.73 36.32 11.49 44.4 9.43.56-.15 1.06-.29 1.47-.43 6.66-2.25 12.99-7.61 5.91-10.9z"/><path class="cls-1" d="M53.81 13.15c.33.56.72 1.47 1.07 2C64.92 30.53 84.7 37 95.09 37.47c7.09.31 14.66-2.82 8.82-8.34a17.25 17.25 0 00-2.92-2.3c-14.18 2.06-36.62.86-47.18-13.68z"/><path class="cls-1" d="M53.81 13.15c-.32.56-.71 1.47-1.05 2C42.92 30.53 23.53 37 13.34 37.47 6.4 37.78-1 34.65 4.69 29.13a17.12 17.12 0 012.87-2.3c13.9 2.06 35.9.86 46.25-13.68z"/><path class="cls-1" d="M3.05 11.25C15 5.39 29 3.6 53.81 13.15 41.33 26.88 18.2 24.64 10.28 22.58c-.55-.15-1-.29-1.44-.43-6.52-2.25-12.74-7.61-5.79-10.9zM53.72 0c1.42 0 4.93 4.51 4.93 7.06 0 3-2.21 3.27-4.93 3.27s-4.94-.33-4.94-3.27C48.78 4.51 52.3 0 53.72 0z"/><path class="cls-1" d="M53.72 13.15c-9.34 15-2.09 53.16-.94 57.34.22.82.63.93.94.93s.71-.11.93-.93c1.15-4.18 8.4-42.32-.93-57.34z"/></g></g></svg>