<svg id="Capa_1" data-name="Capa 1" xmlns="http://www.w3.org/2000/svg" viewBox="0 0 304.1 95.85"><defs><style>.cls-1{fill:#fff;}</style></defs><title>Mesa de trabajo 5</title><circle class="cls-1" cx="9.03" cy="39.03" r="9.03"/><circle class="cls-1" cx="44.99" cy="49.32" r="11.48"/><circle class="cls-1" cx="27.99" cy="15.77" r="7.15"/><circle class="cls-1" cx="66.21" cy="14.04" r="14.04"/><circle class="cls-1" cx="86.58" cy="55.59" r="14.63"/><circle class="cls-1" cx="54.36" cy="84.11" r="11.74"/><path class="cls-1" d="M135.6,58.78h11.29v6.33H127.14V30.93h8.46Z"/><path class="cls-1" d="M180.08,56.87a15.23,15.23,0,0,1-6.34,6.07A20.56,20.56,0,0,1,164,65.11H150.8V30.93H164a20.93,20.93,0,0,1,9.75,2.13,15,15,0,0,1,6.31,6,17.67,17.67,0,0,1,2.2,8.9A17.77,17.77,0,0,1,180.08,56.87ZM171,55.15a9.36,9.36,0,0,0,2.75-7.2,9.36,9.36,0,0,0-2.75-7.2q-2.75-2.56-7.7-2.57h-4V57.72h4Q168.22,57.72,171,55.15Z"/><path class="cls-1" d="M212.23,30.93v6.58h-9.5v27.6h-8.52V37.51h-9.4V30.93Z"/><path class="cls-1" d="M235,44.71v6.87H213.17V44.71Z"/><path class="cls-1" d="M272,56.87a15.26,15.26,0,0,1-6.33,6.07,20.63,20.63,0,0,1-9.73,2.17H242.67V30.93h13.22a20.93,20.93,0,0,1,9.75,2.13,15,15,0,0,1,6.31,6,17.67,17.67,0,0,1,2.2,8.9A17.77,17.77,0,0,1,272,56.87Zm-9.11-1.72a9.32,9.32,0,0,0,2.75-7.2,9.32,9.32,0,0,0-2.75-7.2q-2.74-2.56-7.69-2.57h-4V57.72h4Q260.1,57.72,262.84,55.15Z"/><path class="cls-1" d="M302.69,60.47a9.78,9.78,0,0,1-4.16,3.63,15,15,0,0,1-6.65,1.35,16,16,0,0,1-9.71-2.8A10.08,10.08,0,0,1,278,54.82h9a4.62,4.62,0,0,0,1.42,3A4.37,4.37,0,0,0,291.53,59a3.62,3.62,0,0,0,2.57-.87,3.25,3.25,0,0,0,.08-4.49A6.84,6.84,0,0,0,292,52.18c-.85-.37-2-.81-3.56-1.33A44.54,44.54,0,0,1,283,48.7a9.83,9.83,0,0,1-3.61-3.09,8.81,8.81,0,0,1-1.51-5.35A8.81,8.81,0,0,1,279.5,35a10.1,10.1,0,0,1,4.38-3.41,16.32,16.32,0,0,1,6.41-1.18q5.85,0,9.28,2.71a10.22,10.22,0,0,1,3.89,7.44H294.3A4.53,4.53,0,0,0,293,37.87a3.77,3.77,0,0,0-2.75-1,3.62,3.62,0,0,0-2.4.77,2.81,2.81,0,0,0-.91,2.27,2.88,2.88,0,0,0,.81,2.06,6.42,6.42,0,0,0,2.06,1.38c.82.35,2,.8,3.56,1.35a39.85,39.85,0,0,1,5.49,2.2,10.53,10.53,0,0,1,3.67,3.17,8.89,8.89,0,0,1,1.53,5.41A9.24,9.24,0,0,1,302.69,60.47Z"/></svg>